:SAMPLES-PER-SECOND 30
:FULLY-SPECIFIED
:DEGREES
1
root  72.703 39.4719 -11.6275 -7.4042 -84.1944 6.49154
RightUpLeg  -0.340791 -7.70124 -5.21318
RightLeg  4.21904 11.2487 -0.528527
RightFoot  -2.77814 -0.202446 2.36444
RightToes  -1.16417e-010 0 -3.6325e-017
Spine  -10.1852 2.09369 3.99262
Spine1  12.923 2.50367 -2.69445
HEad  -14.1919 -13.9879 2.57691
LeftShoulder1  -0.451902 4.7005 -31.6229
LeftArm  -0.169247 10.5918 -42.3847
LeftForeArm  26.1923 -15.1957 -6.45479
LeftHand  -0.119568 11.4741 -1.03629
RightShoulder  -1.05307 -6.22577 32.1083
RightArm  18.168 -0.0978376 46.1559
RightForeArm  17.1832 10.3585 7.80084
RightHand  -0.102329 3.62584 -1.57659
LeftUpLeg  5.43482 7.12288 2.52221
LeftLeg  1.19397 12.6923 0.490875
LeftFoot  -4.07527 0.131687 -1.70711
LeftToes  1.47335e-010 -1.29615e-010 3.08757e-011
2
root  72.7029 39.4686 -11.6234 -7.07001 -84.2677 6.08282
RightUpLeg  -0.241931 -7.6751 -5.17277
RightLeg  4.15214 11.3024 -0.545659
RightFoot  -2.78153 -0.206745 2.43115
RightToes  -1.16417e-010 0 -3.6325e-017
Spine  -10.2803 2.13077 4.06408
Spine1  13.0253 2.53944 -2.71567
HEad  -13.664 -13.8606 2.42394
LeftShoulder1  -0.432798 4.65014 -31.6138
LeftArm  0.091031 10.6569 -42.3206
LeftForeArm  25.9688 -15.2729 -6.46036
LeftHand  -0.121237 11.4222 -1.08187
RightShoulder  -1.06487 -6.24895 32.2139
RightArm  18.8015 -0.123043 46.1077
RightForeArm  17.5601 10.7198 7.81826
RightHand  -0.0962636 2.6577 -1.58429
LeftUpLeg  5.56594 7.18561 2.59736
LeftLeg  1.10657 12.6637 0.442627
LeftFoot  -4.12125 0.123811 -1.58467
LeftToes  1.47335e-010 -1.29615e-010 3.08757e-011
3
root  72.7049 39.465 -11.6239 -7.17519 -84.4598 6.03368
RightUpLeg  -0.135425 -7.63077 -5.13635
RightLeg  4.21018 11.4537 -0.566371
RightFoot  -2.8251 -0.205888 2.41785
RightToes  -1.16417e-010 0 -3.6325e-017
Spine  -10.2798 2.13521 4.08519
Spine1  13.017 2.55269 -2.7578
HEad  -12.8883 -13.4249 2.22669
LeftShoulder1  -0.403976 4.57843 -31.4565
LeftArm  0.17644 11.0076 -42.3492
LeftForeArm  25.8529 -15.5391 -6.32993
LeftHand  -0.1341 11.3382 -1.34306
RightShoulder  -1.03344 -6.16343 32.266
RightArm  18.224 -0.207753 45.9712
RightForeArm  16.7571 10.0867 7.93736
RightHand  -0.144255 4.01071 -2.05314
LeftUpLeg  5.75418 7.25476 2.65437
LeftLeg  1.12261 12.8157 0.42551
LeftFoot  -4.13458 0.123393 -1.57817
LeftToes  1.47335e-010 -1.29615e-010 3.08757e-011
4
root  72.7215 39.4637 -11.6218 -7.00914 -84.5545 5.68269
RightUpLeg  0.0704554 -7.61045 -5.11184
RightLeg  4.10643 11.5421 -0.583515
RightFoot  -2.7615 -0.205906 2.41813
RightToes  -1.16417e-010 0 -3.6325e-017
Spine  -10.3846 2.13892 3.95292
Spine1  13.3678 2.49851 -2.52194
HEad  -12.4221 -12.9293 1.76483
LeftShoulder1  -0.40086 4.56555 -31.6136
LeftArm  -0.118957 10.8236 -42.3734
LeftForeArm  26.0096 -15.383 -6.36357
LeftHand  -0.126735 11.3649 -1.2232
RightShoulder  -1.02148 -6.14478 32.0895
RightArm  18.1552 -0.0892979 46.0756
RightForeArm  16.8835 9.97434 7.95841
RightHand  -0.132658 3.90275 -1.91344
LeftUpLeg  5.8752 7.30764 2.72229
LeftLeg  1.27255 12.8095 0.469367
LeftFoot  -4.15726 0.130678 -1.69142
LeftToes  1.47335e-010 -1.29615e-010 3.08757e-011
5
root  72.7612 39.4633 -11.6176 -7.31977 -84.7201 5.9673
RightUpLeg  -0.0307876 -7.60193 -5.11481
RightLeg  4.17252 11.6966 -0.577478
RightFoot  -2.71072 -0.20602 2.4199
RightToes  -1.16417e-010 0 -3.6325e-017
Spine  -10.2787 2.17702 3.79451
Spine1  13.2848 2.48908 -2.28892
HEad  -11.5122 -12.8679 1.89652
LeftShoulder1  -0.45212 4.69053 -31.9602
LeftArm  -0.112791 10.5628 -42.2028
LeftForeArm  26.1581 -15.2565 -6.42356
LeftHand  -0.121099 11.214 -1.27629
RightShoulder  -1.04462 -6.20455 32.0975
RightArm  18.2363 -0.105025 45.9141
RightForeArm  16.4137 10.0258 7.96622
RightHand  -0.190458 4.44349 -2.53581
LeftUpLeg  5.85249 7.30966 2.70171
LeftLeg  1.28521 12.973 0.448412
LeftFoot  -4.12591 0.125811 -1.61576
LeftToes  1.47335e-010 -1.29615e-010 3.08757e-011
6
root  72.7956 39.4634 -11.6175 -8.22984 -84.8889 6.96956
RightUpLeg  -0.269753 -7.58971 -5.15736
RightLeg  4.27715 11.8536 -0.574482
RightFoot  -2.69595 -0.2122 2.51578
RightToes  -1.16417e-010 0 -3.6325e-017
Spine  -10.4696 2.23477 3.61046
Spine1  13.4457 2.54878 -2.22051
HEad  -10.9192 -12.6825 1.88199
LeftShoulder1  -0.502616 4.82452 -31.9102
LeftArm  -0.61223 10.3219 -42.4394
LeftForeArm  26.6741 -15.0251 -6.45557
LeftHand  -0.121774 11.1965 -1.26005
RightShoulder  -1.04949 -6.21595 32.1155
RightArm  18.4512 -0.280889 45.8011
RightForeArm  15.9154 10.4328 7.86422
RightHand  -0.175214 4.13334 -2.41274
LeftUpLeg  5.67364 7.31161 2.61669
LeftLeg  1.40511 13.1775 0.41131
LeftFoot  -4.12074 0.121072 -1.54208
LeftToes  1.47335e-010 -1.29615e-010 3.08757e-011
7
root  72.8155 39.4641 -11.6148 -8.40645 -85.0186 7.07383
RightUpLeg  -0.248102 -7.57624 -5.14695
RightLeg  4.26767 11.9708 -0.594079
RightFoot  -2.64159 -0.210899 2.49559
RightToes  -1.16417e-010 0 -3.6325e-017
Spine  -10.5191 2.24213 3.71272
Spine1  13.5798 2.61058 -2.42871
HEad  -10.3145 -12.728 1.96018
LeftShoulder1  -0.457575 4.71022 -31.7913
LeftArm  -0.230843 10.53 -42.447
LeftForeArm  26.0888 -15.3676 -6.35222
LeftHand  -0.127789 11.3853 -1.2046
RightShoulder  -1.02879 -6.16913 32.0138
RightArm  18.0667 -0.351805 45.9455
RightForeArm  16.1114 10.3189 7.80726
RightHand  -0.159629 4.56914 -2.14995
LeftUpLeg  5.7325 7.32572 2.62581
LeftLeg  1.4287 13.2515 0.419173
LeftFoot  -4.19265 0.131104 -1.69804
LeftToes  1.47335e-010 -1.29615e-010 3.08757e-011
8
root  72.8368 39.4652 -11.6101 -8.52581 -85.2129 6.98523
RightUpLeg  -0.0337376 -7.56154 -5.13045
RightLeg  4.14646 12.1593 -0.626637
RightFoot  -2.55684 -0.21389 2.54199
RightToes  -1.16417e-010 0 -3.6325e-017
Spine  -10.3218 2.2353 3.6053
Spine1  13.5829 2.56688 -2.24658
HEad  -9.87763 -12.5152 1.96118
LeftShoulder1  -0.446227 4.67321 -32.0183
LeftArm  -0.0451685 10.545 -42.2951
LeftForeArm  25.8024 -15.4742 -6.32986
LeftHand  -0.138795 11.5802 -1.35239
RightShoulder  -1.00972 -6.13461 31.7955
RightArm  17.9289 -0.277176 46.1263
RightForeArm  16.3712 10.0707 7.86478
RightHand  -0.145125 3.93892 -2.06021
LeftUpLeg  6.0093 7.40666 2.69649
LeftLeg  1.31393 13.3997 0.351213
LeftFoot  -4.12754 0.119923 -1.52423
LeftToes  1.47335e-010 -1.29615e-010 3.08757e-011
9
root  72.8608 39.4665 -11.6123 -8.86622 -85.2513 7.29338
RightUpLeg  -0.0515932 -7.55637 -5.14456
RightLeg  4.15261 12.2071 -0.634641
RightFoot  -2.51739 -0.210344 2.48699
RightToes  -1.16417e-010 0 -3.6325e-017
Spine  -10.1243 2.15363 3.44961
Spine1  13.3403 2.48917 -2.2163
HEad  -9.49221 -12.39 2.13645
LeftShoulder1  -0.460604 4.71121 -32.0065
LeftArm  0.0248032 10.6276 -42.2574
LeftForeArm  25.9784 -15.4352 -6.35537
LeftHand  -0.147177 11.0864 -1.6948
RightShoulder  -1.01041 -6.13674 31.7904
RightArm  18.0834 -0.534458 46.0786
RightForeArm  17.2418 10.3713 7.7573
RightHand  -0.0890986 3.03299 -1.46223
LeftUpLeg  5.9875 7.40711 2.67701
LeftLeg  1.36957 13.4135 0.351912
LeftFoot  -4.1207 0.119207 -1.51309
LeftToes  1.47335e-010 -1.29615e-010 3.08757e-011
10
root  72.9019 39.4682 -11.6083 -9.5791 -85.452 8.27658
RightUpLeg  -0.534503 -7.57387 -5.16314
RightLeg  4.32494 12.4059 -0.568865
RightFoot  -2.48246 -0.204321 2.39354
RightToes  -1.16417e-010 0 -3.6325e-017
Spine  -10.5527 2.15498 3.29816
Spine1  13.6874 2.49408 -2.16405
HEad  -9.64374 -12.1692 2.26686
LeftShoulder1  -0.482823 4.76977 -32.0015
LeftArm  -0.159996 10.512 -42.3744
LeftForeArm  26.3583 -15.3934 -6.33591
LeftHand  -0.127838 10.1572 -1.68092
RightShoulder  -0.99508 -6.09275 31.8431
RightArm  17.6994 -0.201166 46.164
RightForeArm  17.3293 9.92504 7.83384
RightHand  -0.109491 3.24078 -1.71192
LeftUpLeg  5.64748 7.29363 2.53278
LeftLeg  1.36432 13.7058 0.37729
LeftFoot  -4.07109 0.126957 -1.63357
LeftToes  1.47335e-010 -1.29615e-010 3.08757e-011
